<?xml version='1.0' encoding='UTF-8' standalone='no'?>
<!-- Created with Fritzing (http://www.fritzing.org/) -->
<svg xmlns:svg='http://www.w3.org/2000/svg' xmlns='http://www.w3.org/2000/svg' version='1.2' baseProfile='tiny' x='0in' y='0in' width='1.2in' height='0.8in' viewBox='0 0 86.4 57.6' >
<g transform="translate(86.4,0) scale(-1,1)">
<g partID='855800360'><g transform='translate(7.2024,0.0011664)' ><g xmlns="http://www.w3.org/2000/svg" id="breadboard">
<rect fill="#404040" height="7.2" xmlns="http://www.w3.org/2000/svg" width="7.2"/>
<rect fill="none" height="2.78312" x="2.20843" y="2.20843" xmlns="http://www.w3.org/2000/svg" id="connector0pin" width="2.78312"/>
<g fill="none" height="2.25658" x="2.51834" y="2.47054" xmlns="http://www.w3.org/2000/svg" id="connector0terminal" width="2.15829"/>
<rect height="2.78312" x="2.20843" y="2.20843" xmlns="http://www.w3.org/2000/svg" width="2.78312"/>
<polygon fill="#2A2A29" points="1.18445,1.18445,2.20843,2.20843,4.99156,2.20843,6.01654,1.18445" xmlns="http://www.w3.org/2000/svg"/>
<polygon fill="#474747" points="6.01654,1.18445,4.99156,2.20843,4.99156,4.99156,6.01654,6.01654" xmlns="http://www.w3.org/2000/svg"/>
<polygon fill="#595959" points="6.01654,6.01654,4.99156,4.99156,2.20843,4.99156,1.18445,6.01654" xmlns="http://www.w3.org/2000/svg"/>
<polygon fill="#373737" points="1.18445,6.01654,2.20843,4.99156,2.20843,2.20843,1.18445,1.18445" xmlns="http://www.w3.org/2000/svg"/>
</g>
</g></g><g partID='855800340'><g transform='translate(0.0024,50.4012)' ><g xmlns="http://www.w3.org/2000/svg" id="breadboard">
<rect fill="#404040" height="7.2" xmlns="http://www.w3.org/2000/svg" width="7.2"/>
<rect fill="none" height="2.78312" x="2.20843" y="2.20843" xmlns="http://www.w3.org/2000/svg" id="connector0pin" width="2.78312"/>
<g fill="none" height="2.25658" x="2.51834" y="2.47054" xmlns="http://www.w3.org/2000/svg" id="connector0terminal" width="2.15829"/>
<rect height="2.78312" x="2.20843" y="2.20843" xmlns="http://www.w3.org/2000/svg" width="2.78312"/>
<polygon fill="#2A2A29" points="1.18445,1.18445,2.20843,2.20843,4.99156,2.20843,6.01654,1.18445" xmlns="http://www.w3.org/2000/svg"/>
<polygon fill="#474747" points="6.01654,1.18445,4.99156,2.20843,4.99156,4.99156,6.01654,6.01654" xmlns="http://www.w3.org/2000/svg"/>
<polygon fill="#595959" points="6.01654,6.01654,4.99156,4.99156,2.20843,4.99156,1.18445,6.01654" xmlns="http://www.w3.org/2000/svg"/>
<polygon fill="#373737" points="1.18445,6.01654,2.20843,4.99156,2.20843,2.20843,1.18445,1.18445" xmlns="http://www.w3.org/2000/svg"/>
</g>
</g></g><g partID='855800320'><g transform='translate(7.2024,50.4012)' ><g xmlns="http://www.w3.org/2000/svg" id="breadboard">
<rect fill="#404040" height="7.2" xmlns="http://www.w3.org/2000/svg" width="7.2"/>
<rect fill="none" height="2.78312" x="2.20843" y="2.20843" xmlns="http://www.w3.org/2000/svg" id="connector0pin" width="2.78312"/>
<g fill="none" height="2.25658" x="2.51834" y="2.47054" xmlns="http://www.w3.org/2000/svg" id="connector0terminal" width="2.15829"/>
<rect height="2.78312" x="2.20843" y="2.20843" xmlns="http://www.w3.org/2000/svg" width="2.78312"/>
<polygon fill="#2A2A29" points="1.18445,1.18445,2.20843,2.20843,4.99156,2.20843,6.01654,1.18445" xmlns="http://www.w3.org/2000/svg"/>
<polygon fill="#474747" points="6.01654,1.18445,4.99156,2.20843,4.99156,4.99156,6.01654,6.01654" xmlns="http://www.w3.org/2000/svg"/>
<polygon fill="#595959" points="6.01654,6.01654,4.99156,4.99156,2.20843,4.99156,1.18445,6.01654" xmlns="http://www.w3.org/2000/svg"/>
<polygon fill="#373737" points="1.18445,6.01654,2.20843,4.99156,2.20843,2.20843,1.18445,1.18445" xmlns="http://www.w3.org/2000/svg"/>
</g>
</g></g><g partID='855800300'><g transform='translate(72.0024,50.4012)' ><g xmlns="http://www.w3.org/2000/svg" id="breadboard">
<rect fill="#404040" height="7.2" xmlns="http://www.w3.org/2000/svg" width="7.2"/>
<rect fill="none" height="2.78312" x="2.20843" y="2.20843" xmlns="http://www.w3.org/2000/svg" id="connector0pin" width="2.78312"/>
<g fill="none" height="2.25658" x="2.51834" y="2.47054" xmlns="http://www.w3.org/2000/svg" id="connector0terminal" width="2.15829"/>
<rect height="2.78312" x="2.20843" y="2.20843" xmlns="http://www.w3.org/2000/svg" width="2.78312"/>
<polygon fill="#2A2A29" points="1.18445,1.18445,2.20843,2.20843,4.99156,2.20843,6.01654,1.18445" xmlns="http://www.w3.org/2000/svg"/>
<polygon fill="#474747" points="6.01654,1.18445,4.99156,2.20843,4.99156,4.99156,6.01654,6.01654" xmlns="http://www.w3.org/2000/svg"/>
<polygon fill="#595959" points="6.01654,6.01654,4.99156,4.99156,2.20843,4.99156,1.18445,6.01654" xmlns="http://www.w3.org/2000/svg"/>
<polygon fill="#373737" points="1.18445,6.01654,2.20843,4.99156,2.20843,2.20843,1.18445,1.18445" xmlns="http://www.w3.org/2000/svg"/>
</g>
</g></g><g partID='855794410'><g transform='translate(79.2024,0.0011664)' ><g xmlns="http://www.w3.org/2000/svg" id="breadboard">
<rect fill="#404040" height="7.2" xmlns="http://www.w3.org/2000/svg" width="7.2"/>
<rect fill="none" height="2.78312" x="2.20843" y="2.20843" xmlns="http://www.w3.org/2000/svg" id="connector0pin" width="2.78312"/>
<g fill="none" height="2.25658" x="2.51834" y="2.47054" xmlns="http://www.w3.org/2000/svg" id="connector0terminal" width="2.15829"/>
<rect height="2.78312" x="2.20843" y="2.20843" xmlns="http://www.w3.org/2000/svg" width="2.78312"/>
<polygon fill="#2A2A29" points="1.18445,1.18445,2.20843,2.20843,4.99156,2.20843,6.01654,1.18445" xmlns="http://www.w3.org/2000/svg"/>
<polygon fill="#474747" points="6.01654,1.18445,4.99156,2.20843,4.99156,4.99156,6.01654,6.01654" xmlns="http://www.w3.org/2000/svg"/>
<polygon fill="#595959" points="6.01654,6.01654,4.99156,4.99156,2.20843,4.99156,1.18445,6.01654" xmlns="http://www.w3.org/2000/svg"/>
<polygon fill="#373737" points="1.18445,6.01654,2.20843,4.99156,2.20843,2.20843,1.18445,1.18445" xmlns="http://www.w3.org/2000/svg"/>
</g>
</g></g><g partID='855682050'><g transform='translate(14.4,0)' ><g  stroke="none" stroke-linecap="butt" stroke-width="0.48" stroke-linejoin="miter" id="breadboard">
 <g  fill="#111111" stroke="none">
  <!-- plastic body, full matrix -->
  <rect  height="57.6" x="0" y="0" width="57.6"/>
 </g>
 <!-- offset origin to the center of the top, left led -->
 <!-- 90*(0.8)/(8*2) = 4.5 -->
 <g transform="matrix(1, 0, 0, 1, 3.6, 3.6)">
  <g  fill="white" stroke="none">
   <!-- (80*8) * [0&#x2026;7] , r = (90*1.9/25.4)/2 = 3.366 -->
   <!-- circles for the matrix of LEDs -->
   <!-- top row -->
   <circle  cx="0" r="2.696" cy="0"/>
   <circle  cx="7.2" r="2.696" cy="0"/>
   <circle  cx="14.4" r="2.696" cy="0"/>
   <circle  cx="21.6" r="2.696" cy="0"/>
   <circle  cx="28.8" r="2.696" cy="0"/>
   <circle  cx="36" r="2.696" cy="0"/>
   <circle  cx="43.2" r="2.696" cy="0"/>
   <circle  cx="50.4" r="2.696" cy="0"/>
   <circle  cx="0" r="2.696" cy="7.2"/>
   <circle  cx="7.2" r="2.696" cy="7.2"/>
   <circle  cx="14.4" r="2.696" cy="7.2"/>
   <circle  cx="21.6" r="2.696" cy="7.2"/>
   <circle  cx="28.8" r="2.696" cy="7.2"/>
   <circle  cx="36" r="2.696" cy="7.2"/>
   <circle  cx="43.2" r="2.696" cy="7.2"/>
   <circle  cx="50.4" r="2.696" cy="7.2"/>
   <circle  cx="0" r="2.696" cy="14.4"/>
   <circle  cx="7.2" r="2.696" cy="14.4"/>
   <circle  cx="14.4" r="2.696" cy="14.4"/>
   <circle  cx="21.6" r="2.696" cy="14.4"/>
   <circle  cx="28.8" r="2.696" cy="14.4"/>
   <circle  cx="36" r="2.696" cy="14.4"/>
   <circle  cx="43.2" r="2.696" cy="14.4"/>
   <circle  cx="50.4" r="2.696" cy="14.4"/>
   <circle  cx="0" r="2.696" cy="21.6"/>
   <circle  cx="7.2" r="2.696" cy="21.6"/>
   <circle  cx="14.4" r="2.696" cy="21.6"/>
   <circle  cx="21.6" r="2.696" cy="21.6"/>
   <circle  cx="28.8" r="2.696" cy="21.6"/>
   <circle  cx="36" r="2.696" cy="21.6"/>
   <circle  cx="43.2" r="2.696" cy="21.6"/>
   <circle  cx="50.4" r="2.696" cy="21.6"/>
   <circle  cx="0" r="2.696" cy="28.8"/>
   <circle  cx="7.2" r="2.696" cy="28.8"/>
   <circle  cx="14.4" r="2.696" cy="28.8"/>
   <circle  cx="21.6" r="2.696" cy="28.8"/>
   <circle  cx="28.8" r="2.696" cy="28.8"/>
   <circle  cx="36" r="2.696" cy="28.8"/>
   <circle  cx="43.2" r="2.696" cy="28.8"/>
   <circle  cx="50.4" r="2.696" cy="28.8"/>
   <circle  cx="0" r="2.696" cy="36"/>
   <circle  cx="7.2" r="2.696" cy="36"/>
   <circle  cx="14.4" r="2.696" cy="36"/>
   <circle  cx="21.6" r="2.696" cy="36"/>
   <circle  cx="28.8" r="2.696" cy="36"/>
   <circle  cx="36" r="2.696" cy="36"/>
   <circle  cx="43.2" r="2.696" cy="36"/>
   <circle  cx="50.4" r="2.696" cy="36"/>
   <circle  cx="0" r="2.696" cy="43.2"/>
   <circle  cx="7.2" r="2.696" cy="43.2"/>
   <circle  cx="14.4" r="2.696" cy="43.2"/>
   <circle  cx="21.6" r="2.696" cy="43.2"/>
   <circle  cx="28.8" r="2.696" cy="43.2"/>
   <circle  cx="36" r="2.696" cy="43.2"/>
   <circle  cx="43.2" r="2.696" cy="43.2"/>
   <circle  cx="50.4" r="2.696" cy="43.2"/>
   <circle  cx="0" r="2.696" cy="50.4"/>
   <circle  cx="7.2" r="2.696" cy="50.4"/>
   <circle  cx="14.4" r="2.696" cy="50.4"/>
   <circle  cx="21.6" r="2.696" cy="50.4"/>
   <circle  cx="28.8" r="2.696" cy="50.4"/>
   <circle  cx="36" r="2.696" cy="50.4"/>
   <circle  cx="43.2" r="2.696" cy="50.4"/>
   <circle  cx="50.4" r="2.696" cy="50.4"/>
  </g>
 </g>
 <!-- offset origin to the top left of the top, left connection pin (16) -->
 <g transform="matrix(1, 0, 0, 1, 2.4, 6)">
  <g  fill="#A0A0A0" stoke="none">
   <rect  height="2.4" x="0" y="0" id="connector15pin" width="2.4"/>
   <rect  height="2.4" x="7.2" y="0" id="connector14pin" width="2.4"/>
   <rect  height="2.4" x="14.4" y="0" id="connector13pin" width="2.4"/>
   <rect  height="2.4" x="21.6" y="0" id="connector12pin" width="2.4"/>
   <rect  height="2.4" x="28.8" y="0" id="connector11pin" width="2.4"/>
   <rect  height="2.4" x="36" y="0" id="connector10pin" width="2.4"/>
   <rect  height="2.4" x="43.2" y="0" id="connector9pin" width="2.4"/>
   <rect  height="2.4" x="50.4" y="0" id="connector8pin" width="2.4"/>
   <!-- 600mils -->
   <g transform="matrix(1, 0, 0, 1, 0, 43.2)">
    <g >
     <rect  height="2.4" x="0" y="0" id="connector0pin" width="2.4"/>
     <rect  height="2.4" x="7.2" y="0" id="connector1pin" width="2.4"/>
     <rect  height="2.4" x="14.4" y="0" id="connector2pin" width="2.4"/>
     <rect  height="2.4" x="21.6" y="0" id="connector3pin" width="2.4"/>
     <rect  height="2.4" x="28.8" y="0" id="connector4pin" width="2.4"/>
     <rect  height="2.4" x="36" y="0" id="connector5pin" width="2.4"/>
     <rect  height="2.4" x="43.2" y="0" id="connector6pin" width="2.4"/>
     <rect  height="2.4" x="50.4" y="0" id="connector7pin" width="2.4"/>
    </g>
   </g>
  </g>
 </g>
</g>
</g></g><g partID='855663860'><g transform='translate(86.4,44.2987)' ><g transform='matrix(-1,0,0,-1,0,0)'  ><g xmlns="http://www.w3.org/2000/svg" id="breadboard">
 <rect xmlns="http://www.w3.org/2000/svg" fill="#303030" height="26.64" x="0" y="2.16" id="middle" width="86.4"/>
 <rect xmlns="http://www.w3.org/2000/svg" fill="#3D3D3D" height="1.7712" x="0" y="2.16" id="top" width="86.4"/>
 <rect xmlns="http://www.w3.org/2000/svg" fill="#000000" height="1.7712" x="0" y="27.0288" id="bottom" width="86.4"/>
 <polygon xmlns="http://www.w3.org/2000/svg" fill="#141414" points="86.4,2.16,85.86,3.9312,85.86,27.0288,86.4,28.8" id="right"/>
 <polygon xmlns="http://www.w3.org/2000/svg" fill="#1F1F1F" points="0,2.16,0.54,3.9312,0.54,27.0288,0,28.8" id="left"/>
 <polygon xmlns="http://www.w3.org/2000/svg" fill="#1C1C1C" points="3.6,11.88,0.54,11.8512,0.4032,13.3776,0.4032,15.48,3.6,15.48" id="left-upper-rect"/>
 <polygon xmlns="http://www.w3.org/2000/svg" fill="#383838" points="0.54,19.116,3.6,19.116,3.6,15.48,0.4032,15.48,0.4032,17.5824" id="left-lower-rect"/>
 <path xmlns="http://www.w3.org/2000/svg" fill="#262626" d="M0.4032,13.3776l0,4.1976c1.0584,-0.1224,1.8864,-1.008,1.8864,-2.1024C2.2896,14.3784,1.4688,13.5,0.4032,13.3776z" id="slot"/>
 <path xmlns="http://www.w3.org/2000/svg" fill="#303030" d="M0.54,3.9312L0.54,11.844c1.7136,0.324,3.0168,1.8216,3.0168,3.6288c0,1.8072,-1.296,3.312,-3.0168,3.636L0.54,19.116l3.6,0L4.14,3.9312L0.54,3.9312z" id="cover"/>
 <circle xmlns="http://www.w3.org/2000/svg" fill="#212121" cx="4.68" r="1.4832" cy="24.0984"/>
 <text xmlns="http://www.w3.org/2000/svg" font-family="OCRA" text-anchor="start" fill="#e6e6e6" stroke="none" x="4.68" y="15.48" font-size="5.76" id="label">IC</text>
 <rect xmlns="http://www.w3.org/2000/svg" fill="#8C8C8C" height="3.1248" x="2.52" y="27.8352" id="connector0pin" width="2.16"/>
 <rect xmlns="http://www.w3.org/2000/svg" fill="#8C8C8C" height="2.16" x="2.52" y="28.8" id="connector0terminal" width="2.16"/>
 <polygon xmlns="http://www.w3.org/2000/svg" fill="#8C8C8C" points="2.52,27.8352,2.52,29.2752,4.68,29.2752,6.12,28.6128,6.12,27.8352"/>
 <rect xmlns="http://www.w3.org/2000/svg" fill="#8C8C8C" height="3.1248" x="2.52" id="connector23pin" width="2.16"/>
 <rect xmlns="http://www.w3.org/2000/svg" fill="#8C8C8C" height="2.16" x="2.52" id="connector23terminal" width="2.16"/>
 <polygon xmlns="http://www.w3.org/2000/svg" fill="#8C8C8C" points="6.12,3.1248,6.12,2.3472,4.68,1.6848,2.52,1.6848,2.52,3.1248"/>
 <rect xmlns="http://www.w3.org/2000/svg" fill="#8C8C8C" height="3.1248" x="81.72" y="27.8352" id="connector11pin" width="2.16"/>
 <rect xmlns="http://www.w3.org/2000/svg" fill="#8C8C8C" height="2.16" x="81.72" y="28.8" id="connector11terminal" width="2.16"/>
 <polygon xmlns="http://www.w3.org/2000/svg" fill="#8C8C8C" points="80.28,27.8352,80.28,28.6128,81.72,29.2752,83.88,29.2752,83.88,27.8352"/>
 <rect xmlns="http://www.w3.org/2000/svg" fill="#8C8C8C" height="3.1248" x="81.72" y="0" id="connector12pin" width="2.16"/>
 <rect xmlns="http://www.w3.org/2000/svg" fill="#8C8C8C" height="2.16" x="81.72" y="0" id="connector12terminal" width="2.16"/>
 <polygon xmlns="http://www.w3.org/2000/svg" fill="#8C8C8C" points="83.88,3.1248,83.88,1.6848,81.72,1.6848,80.28,2.3472,80.28,3.1248"/>
 <rect xmlns="http://www.w3.org/2000/svg" fill="#8C8C8C" height="3.1248" x="9.72" y="0" id="connector22pin" width="2.16"/>
 <rect xmlns="http://www.w3.org/2000/svg" fill="#8C8C8C" height="2.16" x="9.72" id="connector22terminal" width="2.16"/>
 <polygon xmlns="http://www.w3.org/2000/svg" fill="#8C8C8C" points="13.32,3.1248,13.32,2.3472,11.88,1.6848,9.72,1.6848,8.28,2.3472,8.28,3.1248"/>
 <rect xmlns="http://www.w3.org/2000/svg" fill="#8C8C8C" height="3.1248" x="16.92" y="0" id="connector21pin" width="2.16"/>
 <rect xmlns="http://www.w3.org/2000/svg" fill="#8C8C8C" height="2.16" x="16.92" id="connector21terminal" width="2.16"/>
 <polygon xmlns="http://www.w3.org/2000/svg" fill="#8C8C8C" points="20.52,3.1248,20.52,2.3472,19.08,1.6848,16.92,1.6848,15.48,2.3472,15.48,3.1248"/>
 <rect xmlns="http://www.w3.org/2000/svg" fill="#8C8C8C" height="3.1248" x="24.12" y="0" id="connector20pin" width="2.16"/>
 <rect xmlns="http://www.w3.org/2000/svg" fill="#8C8C8C" height="2.16" x="24.12" id="connector20terminal" width="2.16"/>
 <polygon xmlns="http://www.w3.org/2000/svg" fill="#8C8C8C" points="27.72,3.1248,27.72,2.3472,26.28,1.6848,24.12,1.6848,22.68,2.3472,22.68,3.1248"/>
 <rect xmlns="http://www.w3.org/2000/svg" fill="#8C8C8C" height="3.1248" x="31.32" y="0" id="connector19pin" width="2.16"/>
 <rect xmlns="http://www.w3.org/2000/svg" fill="#8C8C8C" height="2.16" x="31.32" id="connector19terminal" width="2.16"/>
 <polygon xmlns="http://www.w3.org/2000/svg" fill="#8C8C8C" points="34.92,3.1248,34.92,2.3472,33.48,1.6848,31.32,1.6848,29.88,2.3472,29.88,3.1248"/>
 <rect xmlns="http://www.w3.org/2000/svg" fill="#8C8C8C" height="3.1248" x="38.52" y="0" id="connector18pin" width="2.16"/>
 <rect xmlns="http://www.w3.org/2000/svg" fill="#8C8C8C" height="2.16" x="38.52" id="connector18terminal" width="2.16"/>
 <polygon xmlns="http://www.w3.org/2000/svg" fill="#8C8C8C" points="42.12,3.1248,42.12,2.3472,40.68,1.6848,38.52,1.6848,37.08,2.3472,37.08,3.1248"/>
 <rect xmlns="http://www.w3.org/2000/svg" fill="#8C8C8C" height="3.1248" x="45.72" y="0" id="connector17pin" width="2.16"/>
 <rect xmlns="http://www.w3.org/2000/svg" fill="#8C8C8C" height="2.16" x="45.72" id="connector17terminal" width="2.16"/>
 <polygon xmlns="http://www.w3.org/2000/svg" fill="#8C8C8C" points="49.32,3.1248,49.32,2.3472,47.88,1.6848,45.72,1.6848,44.28,2.3472,44.28,3.1248"/>
 <rect xmlns="http://www.w3.org/2000/svg" fill="#8C8C8C" height="3.1248" x="52.92" y="0" id="connector16pin" width="2.16"/>
 <rect xmlns="http://www.w3.org/2000/svg" fill="#8C8C8C" height="2.16" x="52.92" id="connector16terminal" width="2.16"/>
 <polygon xmlns="http://www.w3.org/2000/svg" fill="#8C8C8C" points="56.52,3.1248,56.52,2.3472,55.08,1.6848,52.92,1.6848,51.48,2.3472,51.48,3.1248"/>
 <rect xmlns="http://www.w3.org/2000/svg" fill="#8C8C8C" height="3.1248" x="60.12" y="0" id="connector15pin" width="2.16"/>
 <rect xmlns="http://www.w3.org/2000/svg" fill="#8C8C8C" height="2.16" x="60.12" id="connector15terminal" width="2.16"/>
 <polygon xmlns="http://www.w3.org/2000/svg" fill="#8C8C8C" points="63.72,3.1248,63.72,2.3472,62.28,1.6848,60.12,1.6848,58.68,2.3472,58.68,3.1248"/>
 <rect xmlns="http://www.w3.org/2000/svg" fill="#8C8C8C" height="3.1248" x="67.32" y="0" id="connector14pin" width="2.16"/>
 <rect xmlns="http://www.w3.org/2000/svg" fill="#8C8C8C" height="2.16" x="67.32" id="connector14terminal" width="2.16"/>
 <polygon xmlns="http://www.w3.org/2000/svg" fill="#8C8C8C" points="70.92,3.1248,70.92,2.3472,69.48,1.6848,67.32,1.6848,65.88,2.3472,65.88,3.1248"/>
 <rect xmlns="http://www.w3.org/2000/svg" fill="#8C8C8C" height="3.1248" x="74.52" y="0" id="connector13pin" width="2.16"/>
 <rect xmlns="http://www.w3.org/2000/svg" fill="#8C8C8C" height="2.16" x="74.52" id="connector13terminal" width="2.16"/>
 <polygon xmlns="http://www.w3.org/2000/svg" fill="#8C8C8C" points="78.12,3.1248,78.12,2.3472,76.68,1.6848,74.52,1.6848,73.08,2.3472,73.08,3.1248"/>
 <rect xmlns="http://www.w3.org/2000/svg" fill="#8C8C8C" height="3.1248" x="9.72" y="27.8352" id="connector1pin" width="2.16"/>
 <rect xmlns="http://www.w3.org/2000/svg" fill="#8C8C8C" height="2.16" x="9.72" y="28.8" id="connector1terminal" width="2.16"/>
 <polygon xmlns="http://www.w3.org/2000/svg" fill="#8C8C8C" points="8.28,27.8352,8.28,28.6128,9.72,29.2752,11.88,29.2752,13.32,28.6128,13.32,27.8352"/>
 <rect xmlns="http://www.w3.org/2000/svg" fill="#8C8C8C" height="3.1248" x="16.92" y="27.8352" id="connector2pin" width="2.16"/>
 <rect xmlns="http://www.w3.org/2000/svg" fill="#8C8C8C" height="2.16" x="16.92" y="28.8" id="connector2terminal" width="2.16"/>
 <polygon xmlns="http://www.w3.org/2000/svg" fill="#8C8C8C" points="15.48,27.8352,15.48,28.6128,16.92,29.2752,19.08,29.2752,20.52,28.6128,20.52,27.8352"/>
 <rect xmlns="http://www.w3.org/2000/svg" fill="#8C8C8C" height="3.1248" x="24.12" y="27.8352" id="connector3pin" width="2.16"/>
 <rect xmlns="http://www.w3.org/2000/svg" fill="#8C8C8C" height="2.16" x="24.12" y="28.8" id="connector3terminal" width="2.16"/>
 <polygon xmlns="http://www.w3.org/2000/svg" fill="#8C8C8C" points="22.68,27.8352,22.68,28.6128,24.12,29.2752,26.28,29.2752,27.72,28.6128,27.72,27.8352"/>
 <rect xmlns="http://www.w3.org/2000/svg" fill="#8C8C8C" height="3.1248" x="31.32" y="27.8352" id="connector4pin" width="2.16"/>
 <rect xmlns="http://www.w3.org/2000/svg" fill="#8C8C8C" height="2.16" x="31.32" y="28.8" id="connector4terminal" width="2.16"/>
 <polygon xmlns="http://www.w3.org/2000/svg" fill="#8C8C8C" points="29.88,27.8352,29.88,28.6128,31.32,29.2752,33.48,29.2752,34.92,28.6128,34.92,27.8352"/>
 <rect xmlns="http://www.w3.org/2000/svg" fill="#8C8C8C" height="3.1248" x="38.52" y="27.8352" id="connector5pin" width="2.16"/>
 <rect xmlns="http://www.w3.org/2000/svg" fill="#8C8C8C" height="2.16" x="38.52" y="28.8" id="connector5terminal" width="2.16"/>
 <polygon xmlns="http://www.w3.org/2000/svg" fill="#8C8C8C" points="37.08,27.8352,37.08,28.6128,38.52,29.2752,40.68,29.2752,42.12,28.6128,42.12,27.8352"/>
 <rect xmlns="http://www.w3.org/2000/svg" fill="#8C8C8C" height="3.1248" x="45.72" y="27.8352" id="connector6pin" width="2.16"/>
 <rect xmlns="http://www.w3.org/2000/svg" fill="#8C8C8C" height="2.16" x="45.72" y="28.8" id="connector6terminal" width="2.16"/>
 <polygon xmlns="http://www.w3.org/2000/svg" fill="#8C8C8C" points="44.28,27.8352,44.28,28.6128,45.72,29.2752,47.88,29.2752,49.32,28.6128,49.32,27.8352"/>
 <rect xmlns="http://www.w3.org/2000/svg" fill="#8C8C8C" height="3.1248" x="52.92" y="27.8352" id="connector7pin" width="2.16"/>
 <rect xmlns="http://www.w3.org/2000/svg" fill="#8C8C8C" height="2.16" x="52.92" y="28.8" id="connector7terminal" width="2.16"/>
 <polygon xmlns="http://www.w3.org/2000/svg" fill="#8C8C8C" points="51.48,27.8352,51.48,28.6128,52.92,29.2752,55.08,29.2752,56.52,28.6128,56.52,27.8352"/>
 <rect xmlns="http://www.w3.org/2000/svg" fill="#8C8C8C" height="3.1248" x="60.12" y="27.8352" id="connector8pin" width="2.16"/>
 <rect xmlns="http://www.w3.org/2000/svg" fill="#8C8C8C" height="2.16" x="60.12" y="28.8" id="connector8terminal" width="2.16"/>
 <polygon xmlns="http://www.w3.org/2000/svg" fill="#8C8C8C" points="58.68,27.8352,58.68,28.6128,60.12,29.2752,62.28,29.2752,63.72,28.6128,63.72,27.8352"/>
 <rect xmlns="http://www.w3.org/2000/svg" fill="#8C8C8C" height="3.1248" x="67.32" y="27.8352" id="connector9pin" width="2.16"/>
 <rect xmlns="http://www.w3.org/2000/svg" fill="#8C8C8C" height="2.16" x="67.32" y="28.8" id="connector9terminal" width="2.16"/>
 <polygon xmlns="http://www.w3.org/2000/svg" fill="#8C8C8C" points="65.88,27.8352,65.88,28.6128,67.32,29.2752,69.48,29.2752,70.92,28.6128,70.92,27.8352"/>
 <rect xmlns="http://www.w3.org/2000/svg" fill="#8C8C8C" height="3.1248" x="74.52" y="27.8352" id="connector10pin" width="2.16"/>
 <rect xmlns="http://www.w3.org/2000/svg" fill="#8C8C8C" height="2.16" x="74.52" y="28.8" id="connector10terminal" width="2.16"/>
 <polygon xmlns="http://www.w3.org/2000/svg" fill="#8C8C8C" points="73.08,27.8352,73.08,28.6128,74.52,29.2752,76.68,29.2752,78.12,28.6128,78.12,27.8352"/>
</g>
</g></g></g><path stroke='#8c8c8c' stroke-width='2.0952' stroke-linecap='round' stroke-linejoin='round' fill='none' d='M7.47336,42.1524L7.26929,50.5465' />
<path stroke='#8c8c8c' stroke-width='2.0952' stroke-linecap='round' stroke-linejoin='round' fill='none' d='M7.47336,15.4426L7.60941,7.18456' />
<g partID='855666960'><g transform='translate(3.84096,44.2476)' ><g transform='matrix(0,-1,1,0,0,0)'  ><g xmlns="http://www.w3.org/2000/svg" id="breadboard">
 <rect xmlns="http://www.w3.org/2000/svg" fill="none" height="0.72" x="0.36" y="2.5848" id="connector0pin" width="0.72"/>
 <rect xmlns="http://www.w3.org/2000/svg" fill="none" height="0.72" x="29.8202" y="2.5848" id="connector1pin" width="0.72"/>
 <line xmlns="http://www.w3.org/2000/svg" fill="none" x2="2.0952" stroke="#8C8C8C" stroke-linecap="round" y1="3.6324" stroke-width="2.0952" x1="1.0476" y2="3.6324" id="connector0leg"/>
 <line xmlns="http://www.w3.org/2000/svg" fill="none" x2="28.805" stroke="#8C8C8C" stroke-linecap="round" y1="3.6324" stroke-width="2.0952" x1="29.8526" y2="3.6324" id="connector1leg"/>
 <path xmlns="http://www.w3.org/2000/svg" fill="none" stroke="#8C8C8C" stroke-width="2.0952" d="M1.0476,3.6324l28.3666,0"/>
 <path xmlns="http://www.w3.org/2000/svg" fill="#D9B477" d="M10.2478,0.49536c-0.36,-0.1656,-0.9792,-0.2952,-1.3752,-0.2952l-1.9872,0c-0.396,0,-0.72,0.324,-0.72,0.72l0,5.35608c0,0.39672,0.324,0.72,0.72,0.72l1.9872,0c0.396,0,1.0152,-0.13608,1.3752,-0.2952l0.072,-0.03528c0.36,-0.1656,0.9792,-0.2952,1.3752,-0.2952l7.1856,0c0.39672,0,1.01448,0.13608,1.37448,0.2952l0.07272,0.03528c0.36,0.1656,0.97776,0.2952,1.3752,0.2952l1.9872,0c0.39744,0,0.72,-0.32328,0.72,-0.72L24.4102,0.92016c0,-0.396,-0.32256,-0.72,-0.72,-0.72l-1.9872,0c-0.39744,0,-1.0152,0.1368,-1.3752,0.2952l-0.07272,0.036c-0.36,0.1656,-0.97776,0.2952,-1.37448,0.2952l-7.1856,0c-0.396,0,-1.0152,-0.1368,-1.3752,-0.2952L10.2478,0.49536z" id="body"/>
 <rect xmlns="http://www.w3.org/2000/svg" fill="#ad9f4e" height="6.79536" x="22.019" y="0.19368" id="gold_band" width="0.70272"/>
 <rect xmlns="http://www.w3.org/2000/svg" fill="#ff4d00" height="5.5368" x="16.1726" y="0.82656" id="band_rd_multiplier" width="1.8504"/>
 <rect xmlns="http://www.w3.org/2000/svg" fill="#000000" height="5.5368" x="12.4726" y="0.82656" id="band_2_nd" width="1.8504"/>
 <path xmlns="http://www.w3.org/2000/svg" fill="#8a3d06" d="M10.6286,0.63936c-0.1152,-0.036,-0.2232,-0.072,-0.3096,-0.1152l-0.072,-0.036c-0.36,-0.16488,-0.9792,-0.2952,-1.3752,-0.2952l-0.0864,0l0,6.79608l0.0864,0c0.396,0,1.0152,-0.13608,1.3752,-0.2952l0.072,-0.03528c0.0864,-0.04464,0.1944,-0.07992,0.3096,-0.1152L10.6286,0.63936z" id="band_1_st"/>
 <path xmlns="http://www.w3.org/2000/svg" opacity="0.3" d="M23.711,4.0896L23.711,4.0896c0,0.37944,-0.13032,0.69912,-0.2952,0.69912l-1.9224,0c-0.38016,0,-0.97776,-0.05616,-1.33272,-0.1224L20.088,4.65048c-0.34488,-0.0648,-0.94896,-0.1224,-1.33344,-0.1224L11.808,4.52808c-0.3816,0,-0.9792,0.0576,-1.332,0.1224l-0.072,0.01512c-0.3456,0.06552,-0.9432,0.1224,-1.332,0.1224l-0.3168,0l-1.0008,0l-0.3096,0c-0.3816,0,-0.6984,0.29376,-0.6984,0.64512l0,0.24696L6.7464,5.8392l0,0.1728c0,0.36,0.3168,0.64512,0.6984,0.64512l1.62,0c0.3816,0,0.9792,-0.1224,1.332,-0.26712l0.072,-0.02808c0.3456,-0.14112,0.9504,-0.26496,1.332,-0.26496l6.94656,0c0.37944,0,0.97704,0.12384,1.33416,0.26568l0.07416,0.02808c0.34488,0.14472,0.94464,0.26712,1.33344,0.26712l2.2248,0c0.38088,0,0.69912,-0.2952,0.69912,-0.64512L24.413,5.472L24.413,4.49928L24.413,2.65536C24.1358,2.76336,23.711,3.06576,23.711,4.0896z" id="Shadow"/>
 <rect xmlns="http://www.w3.org/2000/svg" opacity="0.4" height="3.15288" x="22.019" y="3.48336" id="ShadowExtra" width="0.70272"/>
 <path xmlns="http://www.w3.org/2000/svg" opacity="0.25" fill="#FFFFFF" d="M19.751,1.08576c0.22968,0,0.49104,-0.1008,0.6624,-0.1728c0.2016,-0.0792,0.57672,-0.144,0.96624,-0.144l1.46088,0c0.22464,0,0.22464,0.2448,0.22464,0.3744c0,0.1296,-0.01512,0.3816,-0.22464,0.3816l-3.06,0c-0.10728,0,-0.2304,-0.1152,-0.2304,-0.22392C19.5566,1.21536,19.6286,1.08576,19.751,1.08576z" id="ReflexRight"/>
 <circle xmlns="http://www.w3.org/2000/svg" opacity="0.35" fill="#FFFFFF" cx="6.99984" r="0.432" cy="1.13616" id="ReflexLeft"/>
 <rect xmlns="http://www.w3.org/2000/svg" opacity="0.5" fill="#FFFF33" height="1.62" x="22.019" y="0.42336" id="Reflex_gold" width="0.70272"/>
 <rect xmlns="http://www.w3.org/2000/svg" opacity="0.5" fill="#FFFFFF" height="0.7488" x="22.019" y="0.78336" id="Reflex_extra" width="0.70272"/>
</g>
</g></g></g><path stroke='#8c8c8c' stroke-width='2.0952' stroke-linecap='round' stroke-linejoin='round' fill='none' d='M79.4734,42.1524L79.6094,50.0703' />
<path stroke='#8c8c8c' stroke-width='2.0952' stroke-linecap='round' stroke-linejoin='round' fill='none' d='M79.4734,15.4426L79.4053,7.38856' />
<g partID='855674560'><g transform='translate(75.841,44.2476)' ><g transform='matrix(0,-1,1,0,0,0)'  ><g xmlns="http://www.w3.org/2000/svg" id="breadboard">
 <rect xmlns="http://www.w3.org/2000/svg" fill="none" height="0.72" x="0.36" y="2.5848" id="connector0pin" width="0.72"/>
 <rect xmlns="http://www.w3.org/2000/svg" fill="none" height="0.72" x="29.8202" y="2.5848" id="connector1pin" width="0.72"/>
 <line xmlns="http://www.w3.org/2000/svg" fill="none" x2="2.0952" stroke="#8C8C8C" stroke-linecap="round" y1="3.6324" stroke-width="2.0952" x1="1.0476" y2="3.6324" id="connector0leg"/>
 <line xmlns="http://www.w3.org/2000/svg" fill="none" x2="28.805" stroke="#8C8C8C" stroke-linecap="round" y1="3.6324" stroke-width="2.0952" x1="29.8526" y2="3.6324" id="connector1leg"/>
 <path xmlns="http://www.w3.org/2000/svg" fill="none" stroke="#8C8C8C" stroke-width="2.0952" d="M1.0476,3.6324l28.3666,0"/>
 <path xmlns="http://www.w3.org/2000/svg" fill="#D9B477" d="M10.2478,0.49536c-0.36,-0.1656,-0.9792,-0.2952,-1.3752,-0.2952l-1.9872,0c-0.396,0,-0.72,0.324,-0.72,0.72l0,5.35608c0,0.39672,0.324,0.72,0.72,0.72l1.9872,0c0.396,0,1.0152,-0.13608,1.3752,-0.2952l0.072,-0.03528c0.36,-0.1656,0.9792,-0.2952,1.3752,-0.2952l7.1856,0c0.39672,0,1.01448,0.13608,1.37448,0.2952l0.07272,0.03528c0.36,0.1656,0.97776,0.2952,1.3752,0.2952l1.9872,0c0.39744,0,0.72,-0.32328,0.72,-0.72L24.4102,0.92016c0,-0.396,-0.32256,-0.72,-0.72,-0.72l-1.9872,0c-0.39744,0,-1.0152,0.1368,-1.3752,0.2952l-0.07272,0.036c-0.36,0.1656,-0.97776,0.2952,-1.37448,0.2952l-7.1856,0c-0.396,0,-1.0152,-0.1368,-1.3752,-0.2952L10.2478,0.49536z" id="body"/>
 <rect xmlns="http://www.w3.org/2000/svg" fill="#ad9f4e" height="6.79536" x="22.019" y="0.19368" id="gold_band" width="0.70272"/>
 <rect xmlns="http://www.w3.org/2000/svg" fill="#ff4d00" height="5.5368" x="16.1726" y="0.82656" id="band_rd_multiplier" width="1.8504"/>
 <rect xmlns="http://www.w3.org/2000/svg" fill="#ff4d00" height="5.5368" x="12.4726" y="0.82656" id="band_2_nd" width="1.8504"/>
 <path xmlns="http://www.w3.org/2000/svg" fill="#ff4d00" d="M10.6286,0.63936c-0.1152,-0.036,-0.2232,-0.072,-0.3096,-0.1152l-0.072,-0.036c-0.36,-0.16488,-0.9792,-0.2952,-1.3752,-0.2952l-0.0864,0l0,6.79608l0.0864,0c0.396,0,1.0152,-0.13608,1.3752,-0.2952l0.072,-0.03528c0.0864,-0.04464,0.1944,-0.07992,0.3096,-0.1152L10.6286,0.63936z" id="band_1_st"/>
 <path xmlns="http://www.w3.org/2000/svg" opacity="0.3" d="M23.711,4.0896L23.711,4.0896c0,0.37944,-0.13032,0.69912,-0.2952,0.69912l-1.9224,0c-0.38016,0,-0.97776,-0.05616,-1.33272,-0.1224L20.088,4.65048c-0.34488,-0.0648,-0.94896,-0.1224,-1.33344,-0.1224L11.808,4.52808c-0.3816,0,-0.9792,0.0576,-1.332,0.1224l-0.072,0.01512c-0.3456,0.06552,-0.9432,0.1224,-1.332,0.1224l-0.3168,0l-1.0008,0l-0.3096,0c-0.3816,0,-0.6984,0.29376,-0.6984,0.64512l0,0.24696L6.7464,5.8392l0,0.1728c0,0.36,0.3168,0.64512,0.6984,0.64512l1.62,0c0.3816,0,0.9792,-0.1224,1.332,-0.26712l0.072,-0.02808c0.3456,-0.14112,0.9504,-0.26496,1.332,-0.26496l6.94656,0c0.37944,0,0.97704,0.12384,1.33416,0.26568l0.07416,0.02808c0.34488,0.14472,0.94464,0.26712,1.33344,0.26712l2.2248,0c0.38088,0,0.69912,-0.2952,0.69912,-0.64512L24.413,5.472L24.413,4.49928L24.413,2.65536C24.1358,2.76336,23.711,3.06576,23.711,4.0896z" id="Shadow"/>
 <rect xmlns="http://www.w3.org/2000/svg" opacity="0.4" height="3.15288" x="22.019" y="3.48336" id="ShadowExtra" width="0.70272"/>
 <path xmlns="http://www.w3.org/2000/svg" opacity="0.25" fill="#FFFFFF" d="M19.751,1.08576c0.22968,0,0.49104,-0.1008,0.6624,-0.1728c0.2016,-0.0792,0.57672,-0.144,0.96624,-0.144l1.46088,0c0.22464,0,0.22464,0.2448,0.22464,0.3744c0,0.1296,-0.01512,0.3816,-0.22464,0.3816l-3.06,0c-0.10728,0,-0.2304,-0.1152,-0.2304,-0.22392C19.5566,1.21536,19.6286,1.08576,19.751,1.08576z" id="ReflexRight"/>
 <circle xmlns="http://www.w3.org/2000/svg" opacity="0.35" fill="#FFFFFF" cx="6.99984" r="0.432" cy="1.13616" id="ReflexLeft"/>
 <rect xmlns="http://www.w3.org/2000/svg" opacity="0.5" fill="#FFFF33" height="1.62" x="22.019" y="0.42336" id="Reflex_gold" width="0.70272"/>
 <rect xmlns="http://www.w3.org/2000/svg" opacity="0.5" fill="#FFFFFF" height="0.7488" x="22.019" y="0.78336" id="Reflex_extra" width="0.70272"/>
</g>
</g></g></g></g></svg>